<svg width="31" height="31" viewBox="0 0 31 31" fill="none" xmlns="http://www.w3.org/2000/svg">
<g clip-path="url(#clip0_60_1090)">
<mask id="mask0_60_1090" style="mask-type:luminance" maskUnits="userSpaceOnUse" x="0" y="0" width="31" height="31">
<path d="M30.7598 0.75H0.759766V30.75H30.7598V0.75Z" fill="white"/>
</mask>
<g mask="url(#mask0_60_1090)">
<path d="M15.7598 0.75C13.026 0.75 10.5098 1.41625 8.20977 2.75C5.94192 4.05119 4.06096 5.93215 2.75977 8.2C1.42602 10.5 0.759766 13.0162 0.759766 15.75C0.759766 18.4838 1.42602 21 2.75977 23.3C4.06096 25.5678 5.94192 27.4488 8.20977 28.75C10.5098 30.0837 13.026 30.75 15.7598 30.75C18.4936 30.75 21.0098 30.0837 23.3098 28.75C25.5776 27.4488 27.4586 25.5678 28.7598 23.3C30.0935 21 30.7598 18.4838 30.7598 15.75C30.7598 13.0162 30.0935 10.5 28.7598 8.2C27.4586 5.93215 25.5776 4.05119 23.3098 2.75C21.0098 1.41625 18.4936 0.75 15.7598 0.75ZM19.6598 15.75H17.1598V24.75H13.7598V15.75H11.5598V12.65H13.7598V10.75C13.7598 9.35 13.9936 8.35 14.4598 7.75C14.9936 7.01625 15.9598 6.65 17.3598 6.65H19.8598V9.75H18.3598C17.826 9.75 17.4935 9.83375 17.3598 10C17.226 10.1663 17.1598 10.4837 17.1598 10.95V12.45H19.8598L19.6598 15.75Z" fill="#7E7E7E"/>
</g>
</g>
<defs>
<clipPath id="clip0_60_1090">
<rect width="30" height="30" fill="white" transform="translate(0.759766 0.75)"/>
</clipPath>
</defs>
</svg>
