<svg width="26" height="26" viewBox="0 0 26 26" fill="none" xmlns="http://www.w3.org/2000/svg">
<g clip-path="url(#clip0_60_988)">
<mask id="mask0_60_988" style="mask-type:luminance" maskUnits="userSpaceOnUse" x="0" y="0" width="26" height="26">
<path d="M25.9199 0.98999H0.919922V25.99H25.9199V0.98999Z" fill="white"/>
</mask>
<g mask="url(#mask0_60_988)">
<path d="M18.4135 4.89626C19.7927 4.89626 21.0885 5.43376 22.0635 6.40772C23.0304 7.37637 23.5734 8.68908 23.5734 10.0577C23.5734 11.4263 23.0304 12.739 22.0635 13.7077L13.4198 22.3525L4.77501 13.7077C3.80846 12.739 3.26562 11.4267 3.26562 10.0582C3.26562 8.68986 3.80846 7.37737 4.77501 6.40876C5.25317 5.92782 5.82197 5.5465 6.4485 5.28687C7.07502 5.02726 7.74682 4.89449 8.42501 4.89626C9.80418 4.89626 11.1 5.43376 12.075 6.40772L12.8667 7.19938L13.4198 7.75251L13.9719 7.19938L14.7635 6.40772C15.2419 5.9271 15.8107 5.54607 16.4373 5.28663C17.0637 5.02721 17.7355 4.89452 18.4135 4.89626Z" stroke="#111111" stroke-width="1.5625"/>
</g>
</g>
<defs>
<clipPath id="clip0_60_988">
<rect width="25" height="25" fill="white" transform="translate(0.919922 0.98999)"/>
</clipPath>
</defs>
</svg>
