<svg width="31" height="31" viewBox="0 0 31 31" fill="none" xmlns="http://www.w3.org/2000/svg">
<g clip-path="url(#clip0_60_1097)">
<mask id="mask0_60_1097" style="mask-type:luminance" maskUnits="userSpaceOnUse" x="0" y="0" width="31" height="31">
<path d="M30.21 0.75H0.209961V30.75H30.21V0.75Z" fill="white"/>
</mask>
<g mask="url(#mask0_60_1097)">
<path d="M20.21 16.35C20.0824 17.0016 19.8457 17.6271 19.51 18.2C19.1778 18.7652 18.7358 19.2583 18.21 19.65C17.5146 20.17 16.6776 20.4664 15.81 20.5C14.953 20.5357 14.1035 20.3277 13.36 19.9C12.602 19.4758 11.9915 18.8304 11.61 18.05C11.01 16.85 10.8763 15.5838 11.21 14.25H9.80996L9.90996 21.15C9.90996 21.2837 9.95996 21.4162 10.06 21.55C10.16 21.6837 10.2762 21.75 10.41 21.75H20.81C20.9437 21.75 21.0762 21.6837 21.21 21.55C21.3437 21.4162 21.41 21.2837 21.41 21.15V14.25H20.01C20.21 14.9163 20.2762 15.6162 20.21 16.35ZM15.61 18.85C16.41 18.85 17.11 18.55 17.71 17.95C18.31 17.35 18.61 16.6337 18.61 15.8C18.6171 14.9852 18.3131 14.1984 17.76 13.6C17.1937 12.9662 16.4937 12.65 15.66 12.65C14.8262 12.65 14.11 12.95 13.51 13.55C12.91 14.15 12.61 14.8663 12.61 15.7C12.61 16.5338 12.8938 17.2663 13.46 17.9C14.0263 18.5338 14.71 18.85 15.51 18.85H15.61ZM20.81 9.35H19.41C19.2762 9.35 19.1437 9.41625 19.01 9.55C18.8762 9.68375 18.81 9.81625 18.81 9.95V11.65C18.9438 11.9163 19.1437 12.05 19.41 12.05H20.81C21.01 12.05 21.16 11.9838 21.26 11.85C21.3526 11.7368 21.4054 11.5962 21.41 11.45V9.95C21.41 9.81625 21.3437 9.68375 21.21 9.55C21.0762 9.41625 20.9437 9.35 20.81 9.35ZM15.21 0.75C12.4762 0.75 9.95996 1.41625 7.65996 2.75C5.39211 4.05119 3.51115 5.93215 2.20996 8.2C0.876211 10.5 0.209961 13.0162 0.209961 15.75C0.209961 18.4838 0.876211 21 2.20996 23.3C3.51115 25.5678 5.39211 27.4488 7.65996 28.75C9.95996 30.0837 12.4762 30.75 15.21 30.75C17.9438 30.75 20.46 30.0837 22.76 28.75C25.0278 27.4488 26.9088 25.5678 28.21 23.3C29.5437 21 30.21 18.4838 30.21 15.75C30.21 13.0162 29.5437 10.5 28.21 8.2C26.9088 5.93215 25.0278 4.05119 22.76 2.75C20.46 1.41625 17.9438 0.75 15.21 0.75ZM23.01 21.85L22.91 21.95V22.05C22.9128 22.2081 22.8832 22.365 22.823 22.5112C22.7628 22.6574 22.6733 22.7897 22.56 22.9C22.3286 23.1323 22.0322 23.2892 21.71 23.35H9.60996C9.4474 23.351 9.28669 23.3156 9.1396 23.2464C8.99251 23.1772 8.86279 23.0759 8.75996 22.95C8.53262 22.6953 8.37728 22.3847 8.30996 22.05L8.20996 21.85L8.30996 9.55C8.30996 9.21625 8.42621 8.91625 8.65996 8.65C8.89371 8.38375 9.17621 8.21625 9.50996 8.15H21.61C21.9322 8.2108 22.2286 8.36767 22.46 8.6C22.6923 8.83144 22.8492 9.12775 22.91 9.45L23.01 21.85Z" fill="#7E7E7E"/>
</g>
</g>
<defs>
<clipPath id="clip0_60_1097">
<rect width="30" height="30" fill="white" transform="translate(0.209961 0.75)"/>
</clipPath>
</defs>
</svg>
