<svg width="26" height="26" viewBox="0 0 26 26" fill="none" xmlns="http://www.w3.org/2000/svg">
<g clip-path="url(#clip0_60_981)">
<mask id="mask0_60_981" style="mask-type:luminance" maskUnits="userSpaceOnUse" x="0" y="0" width="26" height="26">
<path d="M25.3799 0.98999H0.379883V25.99H25.3799V0.98999Z" fill="white"/>
</mask>
<g mask="url(#mask0_60_981)">
<path d="M14.9236 17.965C13.834 18.6175 12.5874 18.9609 11.3174 18.9587C10.3938 18.96 9.47915 18.7787 8.6259 18.4253C7.77266 18.0719 6.99767 17.5533 6.34551 16.8994C5.69159 16.2472 5.173 15.4722 4.81959 14.6189C4.46617 13.7657 4.28488 12.851 4.28614 11.9275C4.28614 9.98583 5.0726 8.22854 6.34551 6.95562C6.99767 6.30169 7.77266 5.78311 8.6259 5.42969C9.47915 5.07628 10.3938 4.89499 11.3174 4.89625C13.259 4.89625 15.0163 5.6827 16.2893 6.95562C16.9432 7.60778 17.4618 8.38277 17.8152 9.23601C18.1686 10.0893 18.3499 11.0039 18.3486 11.9275C18.3504 13.1748 18.0193 14.4 17.3893 15.4764C16.8507 16.3952 16.9372 17.5473 17.6903 18.3004L21.7038 22.3139" stroke="#111111" stroke-width="1.5625"/>
</g>
</g>
<defs>
<clipPath id="clip0_60_981">
<rect width="25" height="25" fill="white" transform="translate(0.379883 0.98999)"/>
</clipPath>
</defs>
</svg>
