<svg width="31" height="31" viewBox="0 0 31 31" fill="none" xmlns="http://www.w3.org/2000/svg">
<g clip-path="url(#clip0_60_1083)">
<mask id="mask0_60_1083" style="mask-type:luminance" maskUnits="userSpaceOnUse" x="0" y="0" width="31" height="31">
<path d="M30.3096 0.75H0.30957V30.75H30.3096V0.75Z" fill="white"/>
</mask>
<g mask="url(#mask0_60_1083)">
<path d="M15.3096 0.75C12.5758 0.75 10.0596 1.41625 7.75957 2.75C5.49172 4.05119 3.61076 5.93215 2.30957 8.2C0.97582 10.5 0.30957 13.0162 0.30957 15.75C0.30957 18.4838 0.97582 21 2.30957 23.3C3.61076 25.5678 5.49172 27.4488 7.75957 28.75C10.0596 30.0837 12.5758 30.75 15.3096 30.75C18.0434 30.75 20.5596 30.0837 22.8596 28.75C25.1274 27.4488 27.0084 25.5678 28.3096 23.3C29.6433 21 30.3096 18.4838 30.3096 15.75C30.3096 13.0162 29.6433 10.5 28.3096 8.2C27.0084 5.93215 25.1274 4.05119 22.8596 2.75C20.5596 1.41625 18.0434 0.75 15.3096 0.75ZM22.8096 12.35V12.85C22.8096 14.5838 22.3933 16.25 21.5596 17.85C20.7374 19.4378 19.5134 20.7825 18.0096 21.75C16.3433 22.8162 14.4759 23.35 12.4096 23.35C10.3967 23.3651 8.42058 22.8104 6.70957 21.75H7.60957C9.34332 21.75 10.8759 21.2163 12.2096 20.15C11.4096 20.15 10.6934 19.9 10.0596 19.4C9.42582 18.9 8.97582 18.25 8.70957 17.45L9.40957 17.65C9.87582 17.65 10.2096 17.5837 10.4096 17.45C9.55863 17.3259 8.78843 16.8781 8.25957 16.2C7.70789 15.5415 7.40681 14.7091 7.40957 13.85C7.94332 14.1837 8.50957 14.35 9.10957 14.35C7.97582 13.6838 7.40957 12.65 7.40957 11.25C7.40957 10.5837 7.57582 9.95 7.90957 9.35C8.90957 10.55 10.0596 11.4837 11.3596 12.15C12.6792 12.8218 14.1297 13.1972 15.6096 13.25C15.4758 13.05 15.4096 12.75 15.4096 12.35C15.4096 11.35 15.7759 10.4838 16.5096 9.75C17.2434 9.01625 18.1096 8.65 19.1096 8.65C20.1096 8.65 21.0434 9.01625 21.9096 9.75C22.5096 9.61625 23.3096 9.31625 24.3096 8.85C24.0434 9.78375 23.5096 10.45 22.7096 10.85H22.8096C23.7433 10.65 24.4096 10.45 24.8096 10.25C24.1434 11.1162 23.4758 11.8162 22.8096 12.35Z" fill="#7E7E7E"/>
</g>
</g>
<defs>
<clipPath id="clip0_60_1083">
<rect width="30" height="30" fill="white" transform="translate(0.30957 0.75)"/>
</clipPath>
</defs>
</svg>
