<svg width="31" height="31" viewBox="0 0 31 31" fill="none" xmlns="http://www.w3.org/2000/svg">
<g clip-path="url(#clip0_60_1104)">
<mask id="mask0_60_1104" style="mask-type:luminance" maskUnits="userSpaceOnUse" x="0" y="0" width="31" height="31">
<path d="M30.6592 0.75H0.65918V30.75H30.6592V0.75Z" fill="white"/>
</mask>
<g mask="url(#mask0_60_1104)">
<path d="M14.7592 22.75C14.7036 22.8702 14.6174 22.9737 14.5092 23.05C14.4215 23.1127 14.317 23.1475 14.2092 23.15C14.1092 23.15 14.043 23.1163 14.0092 23.05C13.9706 22.9549 13.9536 22.8525 13.9592 22.75V19.05H13.0592V23.15C13.0494 23.3763 13.1012 23.6009 13.2092 23.8C13.3092 23.9663 13.4592 24.05 13.6592 24.05C13.8592 24.05 14.043 23.9837 14.2092 23.85C14.3755 23.7162 14.5592 23.55 14.7592 23.35V23.95H15.6592V19.05H14.7592V22.75ZM9.35918 18.25V17.25H12.6592V18.25H11.5592V23.95H10.4592V18.25H9.35918ZM15.5592 12.35C15.4255 12.35 15.3092 12.3 15.2092 12.2C15.1616 12.155 15.1238 12.1007 15.098 12.0405C15.0722 11.9803 15.059 11.9155 15.0592 11.85V8.85C15.0592 8.78375 15.093 8.71625 15.1592 8.65C15.2255 8.58375 15.343 8.55 15.5092 8.55C15.6755 8.55 15.8092 8.58375 15.9092 8.65C15.9582 8.68259 15.9978 8.72742 16.0241 8.78005C16.0504 8.83267 16.0625 8.89126 16.0592 8.95V11.85C16.0592 11.9838 16.0092 12.1 15.9092 12.2C15.8642 12.2476 15.8099 12.2854 15.7497 12.3112C15.6895 12.337 15.6247 12.3502 15.5592 12.35ZM18.0592 22.75C18.0592 21.95 18.093 21.1163 18.1592 20.25C18.1592 20.1163 18.1092 20 18.0092 19.9C17.9092 19.8 17.8092 19.75 17.7092 19.75H17.5592L17.2592 19.95V22.95L17.5592 23.15L17.7592 23.25C17.893 23.25 17.9755 23.2163 18.0092 23.15C18.043 23.0838 18.0592 22.95 18.0592 22.75ZM18.1592 18.95C18.4254 18.95 18.643 19.05 18.8092 19.25C18.9755 19.45 19.0592 19.75 19.0592 20.15V22.95C19.0592 23.2838 18.993 23.55 18.8592 23.75C18.8042 23.843 18.7219 23.9168 18.6235 23.9615C18.5252 24.0062 18.4154 24.0197 18.3092 24C18.104 23.9738 17.9026 23.9235 17.7092 23.85C17.5589 23.7976 17.434 23.6905 17.3592 23.55V23.95H16.3592V17.25H17.3592V19.45C17.4929 19.3163 17.6255 19.2 17.7592 19.1C17.8724 19.0074 18.013 18.9546 18.1592 18.95ZM23.0592 25.35C23.393 25.0838 23.5929 24.2163 23.6592 22.75C23.7254 22.0163 23.7929 21.3163 23.8592 20.65C23.8592 20.05 23.7929 19.3837 23.6592 18.65C23.5254 17.1837 23.3092 16.2837 23.0092 15.95C22.7092 15.6162 21.4255 15.3838 19.1592 15.25L15.8592 15.15L12.4592 15.25C10.1929 15.3838 8.90918 15.6162 8.60918 15.95C8.30918 16.2837 8.09293 17.1837 7.95918 18.65C7.89262 19.3146 7.85924 19.9821 7.85918 20.65C7.85918 21.3163 7.89293 22.0163 7.95918 22.75C8.09293 24.2163 8.30918 25.1 8.60918 25.4C8.90918 25.7 10.1929 25.95 12.4592 26.15L15.8592 26.25L19.1592 26.15C21.4255 25.95 22.7255 25.7163 23.0592 25.45V25.35ZM11.1592 5.75H9.95918L11.3592 10.25V13.05H12.5592V10.05L13.9592 5.75H12.7592L12.0592 8.65H11.9592L11.1592 5.75ZM14.0592 8.95V11.75C14.0592 12.2163 14.1929 12.5838 14.4592 12.85C14.7254 13.1163 15.093 13.25 15.5592 13.25C16.0255 13.25 16.393 13.1163 16.6592 12.85C16.9255 12.5838 17.0592 12.2163 17.0592 11.75V8.95C17.0592 8.55 16.9255 8.21625 16.6592 7.95C16.393 7.68375 16.0255 7.55 15.5592 7.55C15.093 7.55 14.7254 7.68375 14.4592 7.95C14.1929 8.21625 14.0592 8.55 14.0592 8.95ZM17.9592 7.75V12.25C17.9494 12.4763 18.0012 12.7009 18.1092 12.9C18.2092 13.0663 18.3754 13.15 18.6092 13.15C18.8429 13.15 19.0592 13.1 19.2592 13C19.4592 12.9 19.6592 12.75 19.8592 12.55V13.15H20.9592V7.75H19.8592V11.75C19.7953 11.8806 19.6898 11.9861 19.5592 12.05C19.4517 12.1096 19.332 12.1438 19.2092 12.15C19.1092 12.15 19.043 12.1337 19.0092 12.1C18.9755 12.0662 18.9592 11.9838 18.9592 11.85V7.65H17.9592V7.75ZM15.6592 0.75C18.393 0.75 20.9092 1.41625 23.2092 2.75C25.477 4.05119 27.358 5.93215 28.6592 8.2C29.9929 10.5 30.6592 13.0162 30.6592 15.75C30.6592 18.4838 29.9929 21 28.6592 23.3C27.358 25.5678 25.477 27.4488 23.2092 28.75C20.9092 30.0837 18.393 30.75 15.6592 30.75C12.9254 30.75 10.4092 30.0837 8.10918 28.75C5.84133 27.4488 3.96037 25.5678 2.65918 23.3C1.32543 21 0.65918 18.4838 0.65918 15.75C0.65918 13.0162 1.32543 10.5 2.65918 8.2C3.96037 5.93215 5.84133 4.05119 8.10918 2.75C10.4092 1.41625 12.9254 0.75 15.6592 0.75ZM21.3592 20.85L21.2592 20.35C21.2592 20.15 21.2254 20 21.1592 19.9C21.1266 19.851 21.0818 19.8114 21.0292 19.7851C20.9765 19.7588 20.9179 19.7467 20.8592 19.75C20.8005 19.7467 20.7419 19.7588 20.6892 19.7851C20.6366 19.8114 20.5918 19.851 20.5592 19.9C20.493 20 20.4592 20.15 20.4592 20.35V20.85H21.3592ZM20.9592 18.95C21.3592 18.95 21.6754 19.0663 21.9092 19.3C22.143 19.5338 22.2592 19.8838 22.2592 20.35V21.55H20.4592V22.55C20.4592 22.75 20.493 22.9 20.5592 23C20.6255 23.1 20.743 23.15 20.9092 23.15C21.0755 23.15 21.1929 23.1 21.2592 23C21.3254 22.9 21.3592 22.7163 21.3592 22.45V22.25H22.2592V22.55C22.2592 23.0163 22.143 23.3837 21.9092 23.65C21.6754 23.9162 21.343 24.05 20.9092 24.05C20.4755 24.05 20.1429 23.9162 19.9092 23.65C19.6754 23.3837 19.5592 23.0163 19.5592 22.55V20.35C19.5592 19.95 19.6929 19.6163 19.9592 19.35C20.2254 19.0838 20.5592 18.95 20.9592 18.95Z" fill="#7E7E7E"/>
</g>
</g>
<defs>
<clipPath id="clip0_60_1104">
<rect width="30" height="30" fill="white" transform="translate(0.65918 0.75)"/>
</clipPath>
</defs>
</svg>
