<svg width="79" height="79" viewBox="0 0 79 79" fill="none" xmlns="http://www.w3.org/2000/svg">
<rect width="79" height="79" rx="39.5" fill="url(#paint0_linear_744_180)"/>
<path fill-rule="evenodd" clip-rule="evenodd" d="M38.7099 21.0001C39.788 20.9927 40.7976 21.4949 41.3957 22.3359L58.4622 46.3356C59.4425 47.7142 59.0452 49.5768 57.5747 50.4958C56.1042 51.4149 54.1175 51.0424 53.1371 49.6638L38.7756 29.468L28.0759 44.9997H38.1998C39.9671 44.9997 41.3998 46.3429 41.3998 47.9997C41.3998 49.6566 39.9671 50.9997 38.1998 50.9997H22.2C21.0282 50.9997 19.9501 50.3992 19.3897 49.4345C18.8293 48.4697 18.8762 47.295 19.5119 46.3722L36.0451 22.3724C36.63 21.5233 37.6317 21.0074 38.7099 21.0001Z" fill="#FDFEFF"/>
<defs>
<linearGradient id="paint0_linear_744_180" x1="17.525" y1="72.0894" x2="66.5639" y2="10.9795" gradientUnits="userSpaceOnUse">
<stop stop-color="#6DC1DC"/>
<stop offset="1" stop-color="#8C70FF"/>
</linearGradient>
</defs>
</svg>
